<?xml version="1.0" encoding="utf-8"?>
<!-- Generator: Adobe Illustrator 22.0.0, SVG Export Plug-In . SVG Version: 6.00 Build 0)  -->
<svg version="1.1" xmlns="http://www.w3.org/2000/svg" xmlns:xlink="http://www.w3.org/1999/xlink" x="0px" y="0px"
	 viewBox="0 0 138 27" style="enable-background:new 0 0 138 27;" xml:space="preserve">
<style type="text/css">
	.st0{display:none;}
	.st1{display:inline;}
	.st2{fill:none;}
	.st3{fill:#4A6CF7;}
	.st4{opacity:0.5;fill:#4A6CF7;enable-background:new    ;}
	.st5{opacity:0.5;enable-background:new    ;}
	.st6{fill:#090E34;}
	.st7{fill:#FFFFFF;}
</style>
<g id="Layer_1" class="st0">
	<g class="st1">
		<path class="st2" d="M73.2,16.9c0,1.1,0.9,1.6,2.1,1.6c1.7,0,3-1.1,3-2.6v-1.5c-0.5,0.3-1.9,0.5-2.7,0.6
			C74.1,15.3,73.2,15.8,73.2,16.9z"/>
		<path class="st2" d="M129.6,9.8c-1.9,0-3,1.6-3,4.1s1.1,4.2,3,4.2c1.9,0,3-1.7,3-4.2C132.6,11.5,131.5,9.8,129.6,9.8z"/>
		<path class="st3" d="M15.5,5.4C11.2,2,5.9,0,0,0v23c0,1.1,0.9,2,2,2h4C6,17,9.7,10,15.5,5.4z"/>
		<path class="st4" d="M25,25h4c1.1,0,2-0.9,2-2V0c-5.9,0-11.2,2-15.5,5.4C21.3,10,25,17,25,25z"/>
		<path class="st3" d="M15.5,5.4C9.7,10,6,17,6,25h19C25,17,21.3,10,15.5,5.4z"/>
		<path class="st4" d="M15.5,5.4C9.7,10,6,17,6,25h19C25,17,21.3,10,15.5,5.4z"/>
	</g>
</g>
<g id="Layer_2">
	<g>
		<g>
			<path class="st2" d="M73.2,16.9c0,1.1,0.9,1.6,2.1,1.6c1.7,0,3-1.1,3-2.6v-1.5c-0.5,0.3-1.9,0.5-2.7,0.6
				C74.1,15.3,73.2,15.8,73.2,16.9z"/>
		</g>
		<g>
			<path class="st2" d="M129.6,9.8c-1.9,0-3,1.6-3,4.1s1.1,4.2,3,4.2c1.9,0,3-1.7,3-4.2C132.6,11.5,131.5,9.8,129.6,9.8z"/>
		</g>
		<g>
			<path class="st3" d="M15.5,5.4C11.2,2,5.9,0,0,0v23c0,1.1,0.9,2,2,2h4C6,17,9.7,10,15.5,5.4z"/>
		</g>
		<g class="st5">
			<path class="st3" d="M25,25h4c1.1,0,2-0.9,2-2V0c-5.9,0-11.2,2-15.5,5.4C21.3,10,25,17,25,25z"/>
		</g>
		<g>
			<path class="st3" d="M15.5,5.4C9.7,10,6,17,6,25h19C25,17,21.3,10,15.5,5.4z"/>
		</g>
		<g class="st5">
			<path class="st3" d="M15.5,5.4C9.7,10,6,17,6,25h19C25,17,21.3,10,15.5,5.4z"/>
		</g>
	</g>
	<g>
		<path class="st6" d="M53.1,6.3c-0.9-0.4-1.8-0.6-2.7-0.6c-1.1,0-2.2,0.3-3.1,0.8c-0.9,0.5-1.7,1.3-2.2,2.2c-0.5,0.9-0.8,2-0.8,3.1
			c0,1.1,0.3,2.2,0.8,3.1c0.5,0.9,1.3,1.7,2.2,2.2c0.9,0.5,2,0.8,3.1,0.8c0.9,0,1.7-0.2,2.6-0.6c0.9-0.4,1.7-0.9,2.3-1.6l2.1,2.3
			c-1,1-2.1,1.7-3.3,2.3c-1.3,0.6-2.5,0.8-3.8,0.8c-1.8,0-3.4-0.4-4.8-1.2s-2.6-2-3.4-3.4s-1.2-3-1.2-4.7c0-1.7,0.4-3.3,1.3-4.7
			c0.8-1.4,2-2.5,3.5-3.4C47,3,48.6,2.6,50.4,2.6c1.3,0,2.6,0.3,3.8,0.8s2.3,1.2,3.2,2.2l-2,2.5C54.8,7.3,54,6.7,53.1,6.3z"/>
		<path class="st6" d="M70.6,8.9c1.1,1.3,1.7,3,1.7,5.3c0,0.5,0,0.8,0,1H62c0.2,1,0.7,1.8,1.4,2.3s1.6,0.8,2.6,0.8
			c0.7,0,1.4-0.1,2-0.4c0.7-0.3,1.2-0.7,1.7-1.2l1.8,1.9c-0.7,0.8-1.5,1.4-2.5,1.8c-1,0.4-2.1,0.6-3.3,0.6c-1.4,0-2.7-0.3-3.8-0.9
			c-1.1-0.6-1.9-1.4-2.5-2.5c-0.6-1.1-0.9-2.3-0.9-3.7c0-1.4,0.3-2.6,0.9-3.7s1.4-1.9,2.5-2.5C63,7.3,64.3,7,65.6,7
			C67.8,7,69.5,7.6,70.6,8.9z M69.2,13c0-1-0.4-1.8-1-2.4c-0.6-0.6-1.5-0.9-2.5-0.9c-1,0-1.8,0.3-2.5,0.9c-0.7,0.6-1.1,1.4-1.2,2.5
			H69.2z"/>
		<path class="st6" d="M80.5,7.7C81.3,7.2,82.3,7,83.3,7v3.3c-1.4-0.1-2.6,0.2-3.4,1C79,12,78.6,13,78.6,14.3V21h-3.4V7.1h3.4v2.7
			C79.1,8.9,79.7,8.2,80.5,7.7z"/>
		<path class="st6" d="M93.8,20.1c-1.1,0.7-2.3,1-3.5,1c-1.2,0-2.2-0.4-2.9-1.1s-1.1-1.7-1.1-3.1v-6.9h-1.9l0-2.5h2V3.8h3.4v3.8h4
			v2.5h-4v6.3c0,0.6,0.1,1.1,0.4,1.4s0.6,0.4,1.1,0.4c0.5,0,1.2-0.2,2-0.6L93.8,20.1z"/>
		<path class="st6" d="M99.5,1.7c0.4,0.4,0.5,0.9,0.5,1.5c0,0.6-0.2,1-0.5,1.4c-0.4,0.4-0.8,0.6-1.4,0.6s-1-0.2-1.4-0.6
			c-0.4-0.4-0.5-0.9-0.5-1.4c0-0.6,0.2-1.1,0.5-1.5c0.4-0.4,0.8-0.6,1.4-0.6S99.2,1.3,99.5,1.7z M96.5,7.1h3.4V21h-3.4V7.1z"/>
		<path class="st6" d="M108.6,4.9c-0.3,0.3-0.5,0.7-0.5,1.3v1.4h3.5v2.5h-3.5V21h-3.4V10.1h-1.8V7.7h1.8V6.3c0-1,0.2-1.9,0.7-2.6
			s1.1-1.3,1.8-1.6c0.8-0.4,1.6-0.5,2.5-0.5c0.9,0,1.7,0.2,2.5,0.6l-0.6,2.7c-0.7-0.3-1.3-0.4-1.7-0.4
			C109.3,4.5,108.9,4.6,108.6,4.9z M116.6,1.7c0.4,0.4,0.5,0.9,0.5,1.5c0,0.6-0.2,1-0.5,1.4c-0.4,0.4-0.8,0.6-1.4,0.6
			s-1-0.2-1.4-0.6c-0.4-0.4-0.5-0.9-0.5-1.4c0-0.6,0.2-1.1,0.5-1.5c0.4-0.4,0.8-0.6,1.4-0.6S116.2,1.3,116.6,1.7z M113.5,7.1h3.4V21
			h-3.4V7.1z"/>
		<path class="st6" d="M129.3,21v-1.7c-0.5,0.6-1.1,1.1-1.9,1.4c-0.8,0.3-1.6,0.5-2.6,0.5c-1,0-1.8-0.2-2.6-0.6
			c-0.7-0.4-1.3-0.9-1.7-1.5c-0.4-0.7-0.6-1.4-0.6-2.2c0-1.3,0.5-2.3,1.4-3.1c0.9-0.7,2.2-1.1,3.9-1.1h4.1v-0.4
			c0-0.8-0.3-1.4-0.8-1.9s-1.3-0.7-2.3-0.7c-1.3,0-2.7,0.4-4.1,1.3l-1.2-2.3c1.1-0.6,2.1-1,3-1.3c0.9-0.3,1.9-0.4,3.1-0.4
			c1.8,0,3.2,0.4,4.2,1.3c1,0.9,1.5,2.1,1.5,3.6l0,9.1H129.3z M128.1,17.9c0.7-0.5,1.1-1,1.2-1.7v-1.2h-3.5c-0.9,0-1.6,0.1-2,0.4
			c-0.4,0.3-0.6,0.7-0.6,1.3c0,0.6,0.2,1.1,0.7,1.4c0.4,0.3,1,0.5,1.8,0.5C126.6,18.6,127.4,18.3,128.1,17.9z"/>
	</g>
</g>
<g id="Layer_1_copy" class="st0">
	<g class="st1">
		<g>
			<path class="st2" d="M73.2,16.9c0,1.1,0.9,1.6,2.1,1.6c1.7,0,3-1.1,3-2.6v-1.5c-0.5,0.3-1.9,0.5-2.7,0.6
				C74.1,15.3,73.2,15.8,73.2,16.9z"/>
		</g>
		<g>
			<path class="st2" d="M129.6,9.8c-1.9,0-3,1.6-3,4.1s1.1,4.2,3,4.2c1.9,0,3-1.7,3-4.2C132.6,11.5,131.5,9.8,129.6,9.8z"/>
		</g>
		<g>
			<path class="st3" d="M15.5,5.4C11.2,2,5.9,0,0,0v23c0,1.1,0.9,2,2,2h4C6,17,9.7,10,15.5,5.4z"/>
		</g>
		<g class="st5">
			<path class="st3" d="M25,25h4c1.1,0,2-0.9,2-2V0c-5.9,0-11.2,2-15.5,5.4C21.3,10,25,17,25,25z"/>
		</g>
		<g>
			<path class="st3" d="M15.5,5.4C9.7,10,6,17,6,25h19C25,17,21.3,10,15.5,5.4z"/>
		</g>
		<g class="st5">
			<path class="st3" d="M15.5,5.4C9.7,10,6,17,6,25h19C25,17,21.3,10,15.5,5.4z"/>
		</g>
	</g>
	<g class="st1">
		<path class="st7" d="M53.1,6.3c-0.9-0.4-1.8-0.6-2.7-0.6c-1.1,0-2.2,0.3-3.1,0.8c-0.9,0.5-1.7,1.3-2.2,2.2c-0.5,0.9-0.8,2-0.8,3.1
			c0,1.1,0.3,2.2,0.8,3.1c0.5,0.9,1.3,1.7,2.2,2.2c0.9,0.5,2,0.8,3.1,0.8c0.9,0,1.7-0.2,2.6-0.6c0.9-0.4,1.7-0.9,2.3-1.6l2.1,2.3
			c-1,1-2.1,1.7-3.3,2.3c-1.3,0.6-2.5,0.8-3.8,0.8c-1.8,0-3.4-0.4-4.8-1.2s-2.6-2-3.4-3.4s-1.2-3-1.2-4.7c0-1.7,0.4-3.3,1.3-4.7
			c0.8-1.4,2-2.5,3.5-3.4C47,3,48.6,2.6,50.4,2.6c1.3,0,2.6,0.3,3.8,0.8s2.3,1.2,3.2,2.2l-2,2.5C54.8,7.3,54,6.7,53.1,6.3z"/>
		<path class="st7" d="M70.6,8.9c1.1,1.3,1.7,3,1.7,5.3c0,0.5,0,0.8,0,1H62c0.2,1,0.7,1.8,1.4,2.3s1.6,0.8,2.6,0.8
			c0.7,0,1.4-0.1,2-0.4c0.7-0.3,1.2-0.7,1.7-1.2l1.8,1.9c-0.7,0.8-1.5,1.4-2.5,1.8c-1,0.4-2.1,0.6-3.3,0.6c-1.4,0-2.7-0.3-3.8-0.9
			c-1.1-0.6-1.9-1.4-2.5-2.5c-0.6-1.1-0.9-2.3-0.9-3.7c0-1.4,0.3-2.6,0.9-3.7s1.4-1.9,2.5-2.5C63,7.3,64.3,7,65.6,7
			C67.8,7,69.5,7.6,70.6,8.9z M69.2,13c0-1-0.4-1.8-1-2.4c-0.6-0.6-1.5-0.9-2.5-0.9c-1,0-1.8,0.3-2.5,0.9c-0.7,0.6-1.1,1.4-1.2,2.5
			H69.2z"/>
		<path class="st7" d="M80.5,7.7C81.3,7.2,82.3,7,83.3,7v3.3c-1.4-0.1-2.6,0.2-3.4,1C79,12,78.6,13,78.6,14.3V21h-3.4V7.1h3.4v2.7
			C79.1,8.9,79.7,8.2,80.5,7.7z"/>
		<path class="st7" d="M93.8,20.1c-1.1,0.7-2.3,1-3.5,1c-1.2,0-2.2-0.4-2.9-1.1s-1.1-1.7-1.1-3.1v-6.9h-1.9l0-2.5h2V3.8h3.4v3.8h4
			v2.5h-4v6.3c0,0.6,0.1,1.1,0.4,1.4s0.6,0.4,1.1,0.4c0.5,0,1.2-0.2,2-0.6L93.8,20.1z"/>
		<path class="st7" d="M99.5,1.7c0.4,0.4,0.5,0.9,0.5,1.5c0,0.6-0.2,1-0.5,1.4c-0.4,0.4-0.8,0.6-1.4,0.6s-1-0.2-1.4-0.6
			c-0.4-0.4-0.5-0.9-0.5-1.4c0-0.6,0.2-1.1,0.5-1.5c0.4-0.4,0.8-0.6,1.4-0.6S99.2,1.3,99.5,1.7z M96.5,7.1h3.4V21h-3.4V7.1z"/>
		<path class="st7" d="M108.6,4.9c-0.3,0.3-0.5,0.7-0.5,1.3v1.4h3.5v2.5h-3.5V21h-3.4V10.1h-1.8V7.7h1.8V6.3c0-1,0.2-1.9,0.7-2.6
			s1.1-1.3,1.8-1.6c0.8-0.4,1.6-0.5,2.5-0.5c0.9,0,1.7,0.2,2.5,0.6l-0.6,2.7c-0.7-0.3-1.3-0.4-1.7-0.4
			C109.3,4.5,108.9,4.6,108.6,4.9z M116.6,1.7c0.4,0.4,0.5,0.9,0.5,1.5c0,0.6-0.2,1-0.5,1.4c-0.4,0.4-0.8,0.6-1.4,0.6
			s-1-0.2-1.4-0.6c-0.4-0.4-0.5-0.9-0.5-1.4c0-0.6,0.2-1.1,0.5-1.5c0.4-0.4,0.8-0.6,1.4-0.6S116.2,1.3,116.6,1.7z M113.5,7.1h3.4V21
			h-3.4V7.1z"/>
		<path class="st7" d="M129.3,21v-1.7c-0.5,0.6-1.1,1.1-1.9,1.4c-0.8,0.3-1.6,0.5-2.6,0.5c-1,0-1.8-0.2-2.6-0.6
			c-0.7-0.4-1.3-0.9-1.7-1.5c-0.4-0.7-0.6-1.4-0.6-2.2c0-1.3,0.5-2.3,1.4-3.1c0.9-0.7,2.2-1.1,3.9-1.1h4.1v-0.4
			c0-0.8-0.3-1.4-0.8-1.9s-1.3-0.7-2.3-0.7c-1.3,0-2.7,0.4-4.1,1.3l-1.2-2.3c1.1-0.6,2.1-1,3-1.3c0.9-0.3,1.9-0.4,3.1-0.4
			c1.8,0,3.2,0.4,4.2,1.3c1,0.9,1.5,2.1,1.5,3.6l0,9.1H129.3z M128.1,17.9c0.7-0.5,1.1-1,1.2-1.7v-1.2h-3.5c-0.9,0-1.6,0.1-2,0.4
			c-0.4,0.3-0.6,0.7-0.6,1.3c0,0.6,0.2,1.1,0.7,1.4c0.4,0.3,1,0.5,1.8,0.5C126.6,18.6,127.4,18.3,128.1,17.9z"/>
	</g>
</g>
</svg>
